<?xml version="1.0" encoding="UTF-8" standalone="no"?>
<!DOCTYPE svg PUBLIC "-//W3C//DTD SVG 1.1//EN" "http://www.w3.org/Graphics/SVG/1.1/DTD/svg11.dtd">
<svg version="1.1" xmlns="http://www.w3.org/2000/svg" xmlns:xlink="http://www.w3.org/1999/xlink" preserveAspectRatio="xMidYMid meet" viewBox="0 0 290 65" width="290" height="65"><defs><path d="M70.69 62.28L70.69 2.59L82.14 2.59L82.14 62.28L70.69 62.28Z" id="a30NdSbG9C"></path><path d="M39.2 11.54L39.2 63.33L24.47 63.33L24.47 11.54L1.01 11.54L1.01 1.15L62.71 1.15L62.71 11.54L39.2 11.54ZM27.04 61.29L36.63 61.29L36.63 9.49L60.14 9.49L60.14 3.19L3.58 3.19L3.58 9.49L27.04 9.49L27.04 61.29ZM69.12 63.33L69.12 1.15L83.91 1.15L83.91 63.33L69.12 63.33ZM155.37 43.09C154.4 49.62 151.32 54.88 145.92 58.64C140.55 62.36 133.51 64.13 125.08 64.13C115.74 64.13 108.07 61.44 102.32 56.02C102.32 56.02 102.32 56.02 102.32 56.02C96.64 50.63 93.93 43.54 93.93 34.95C93.93 34.39 93.93 29.92 93.93 29.36C93.93 23.72 95.19 18.67 97.79 14.25C97.79 14.25 97.8 14.25 97.8 14.24C100.43 9.83 104.2 6.37 109.11 3.97C114.02 1.53 119.66 0.35 125.94 0.35C134.21 0.35 141.11 2.2 146.37 6.08C151.61 9.92 154.55 15.18 155.37 21.66C155.39 21.81 155.48 22.56 155.65 23.91L140.89 23.91C140.7 22.85 140.59 22.27 140.57 22.15C139.78 17.75 138.1 14.93 135.89 13.3C135.89 13.3 135.88 13.3 135.88 13.3C133.71 11.68 130.52 10.74 125.94 10.74C120.51 10.74 116.45 12.29 113.46 15.37C110.45 18.5 108.77 23.14 108.77 29.56C108.77 30.13 108.77 34.63 108.77 35.19C108.77 41.23 110.36 45.78 113.27 49.05C116.08 52.21 119.92 53.78 125.08 53.78C130.09 53.78 133.51 52.88 135.73 51.39C137.92 49.91 139.68 47.12 140.58 42.54C140.6 42.42 140.71 41.85 140.91 40.81L155.7 40.81C155.5 42.18 155.39 42.94 155.37 43.09ZM125.08 55.82C119.12 55.82 114.49 53.96 111.17 50.23C107.86 46.51 106.2 41.5 106.2 35.19C106.2 34.63 106.2 30.13 106.2 29.56C106.2 22.89 107.94 17.74 111.42 14.12C114.94 10.5 119.78 8.7 125.94 8.7C130.96 8.7 134.86 9.73 137.64 11.81C140.45 13.88 142.28 17.23 143.12 21.86C144.09 21.86 151.84 21.86 152.81 21.86C152.72 21.16 152.61 20.48 152.47 19.82C151.39 14.7 148.77 10.62 144.62 7.58C139.94 4.12 133.71 2.39 125.94 2.39C120.08 2.39 114.92 3.49 110.47 5.7C106.01 7.88 102.57 11.02 100.12 15.12C97.71 19.22 96.5 23.96 96.5 29.36C96.5 29.92 96.5 34.39 96.5 34.95C96.5 43.2 99.1 49.78 104.29 54.7C109.51 59.62 116.45 62.09 125.08 62.09C133.05 62.09 139.43 60.42 144.22 57.1C148.5 54.13 151.23 50.06 152.43 44.9C152.58 44.23 152.71 43.55 152.81 42.85C151.84 42.85 144.09 42.85 143.12 42.85C142.18 47.64 140.27 51.01 137.39 52.95C134.54 54.86 130.44 55.82 125.08 55.82ZM161.55 44.45C162.52 44.45 170.28 44.45 171.24 44.45C171.24 47.96 172.87 50.74 176.12 52.79C179.4 54.81 183.77 55.82 189.23 55.82C194.32 55.82 198.22 55 200.93 53.35C203.64 51.7 205 49.45 205 46.6C205 43.76 203.74 41.56 201.23 40.02C198.72 38.45 194.17 36.91 187.57 35.39C179.3 33.5 173.27 31.19 169.49 28.45C165.74 25.68 163.86 22.28 163.86 18.23C163.86 13.66 166.15 9.88 170.74 6.9C175.36 3.89 181.36 2.39 188.72 2.39C193.75 2.39 198.22 3.16 202.14 4.7C206.09 6.25 209.13 8.38 211.28 11.09C212.98 13.22 214.02 15.5 214.39 17.94C214.49 18.61 214.54 19.29 214.54 19.99C213.57 19.99 205.82 19.99 204.85 19.99C204.85 16.48 203.44 13.72 200.63 11.73C197.82 9.71 193.85 8.7 188.72 8.7C183.97 8.7 180.25 9.53 177.57 11.21C174.93 12.86 173.61 15.16 173.61 18.11C173.61 20.48 174.86 22.49 177.37 24.14C179.92 25.76 184.22 27.25 190.28 28.61C196.38 29.96 201.13 31.47 204.55 33.12C208 34.74 210.54 36.64 212.18 38.82C213.86 41 214.69 43.57 214.69 46.52C214.69 51.23 212.38 55.01 207.76 57.86C203.14 60.68 196.96 62.09 189.23 62.09C184.2 62.09 179.52 61.33 175.16 59.81C170.81 58.27 167.44 56.17 165.07 53.51C163.21 51.39 162.08 49.06 161.7 46.49C161.6 45.83 161.55 45.14 161.55 44.45ZM217.26 46.52C217.26 51.85 214.6 56.23 209.34 59.47C209.34 59.47 209.33 59.48 209.33 59.48C204.13 62.65 197.34 64.13 189.23 64.13C183.87 64.13 178.83 63.32 174.13 61.68C174.13 61.68 174.12 61.68 174.11 61.68C169.41 60.01 165.65 57.69 162.97 54.69C162.97 54.69 162.96 54.68 162.96 54.68C160.3 51.66 158.98 48.23 158.98 44.45C158.98 44.31 158.98 43.63 158.98 42.41L173.82 42.41C173.82 43.63 173.82 44.31 173.82 44.45C173.82 47.38 175.12 49.55 177.7 51.18C180.41 52.84 184.17 53.78 189.23 53.78C194.02 53.78 197.28 53 199.37 51.72C201.41 50.48 202.43 48.85 202.43 46.6C202.43 44.3 201.45 42.74 199.66 41.64C199.66 41.63 199.65 41.63 199.65 41.63C199.64 41.63 199.64 41.63 199.64 41.62C197.55 40.32 193.42 38.86 186.86 37.35C178.43 35.43 171.96 33.01 167.75 29.96C167.75 29.96 167.75 29.95 167.75 29.95C167.74 29.95 167.74 29.94 167.74 29.94C163.47 26.79 161.29 22.85 161.29 18.23C161.29 13.02 163.95 8.67 169.11 5.32C174.29 1.95 180.91 0.35 188.72 0.35C194.08 0.35 198.95 1.17 203.27 2.87C207.61 4.57 211.03 6.94 213.45 10C215.89 13.04 217.11 16.38 217.11 19.99C217.11 20.12 217.11 20.8 217.11 22.03L202.28 22.03C202.28 20.8 202.28 20.12 202.28 19.99C202.28 16.95 201.09 14.79 198.92 13.25C198.91 13.25 198.9 13.24 198.9 13.24C196.71 11.66 193.44 10.74 188.72 10.74C184.32 10.74 181.24 11.52 179.16 12.81C179.16 12.81 179.16 12.82 179.16 12.82C177.21 14.03 176.18 15.71 176.18 18.11C176.18 19.8 177.02 21.25 179 22.55C181.13 23.91 185.01 25.3 190.98 26.64C197.17 28.02 202.17 29.58 205.87 31.36C209.59 33.11 212.47 35.23 214.38 37.77C216.33 40.31 217.26 43.26 217.26 46.52ZM267.48 46.12L236.84 46.12L229.96 61.29L220.02 61.29L247.94 3.19L256.38 3.19L284.36 61.29L274.46 61.29L267.48 46.12ZM231.77 63.33L216.28 63.33L246.17 1.15L258.15 1.15L288.1 63.33L272.67 63.33L265.68 48.17L238.65 48.17L231.77 63.33ZM252.16 12.65L239.76 39.82L264.62 39.82L252.16 12.65ZM260.95 37.78L252.17 18.63L243.42 37.78L260.95 37.78ZM81.34 3.19L71.69 3.19L71.69 61.29L81.34 61.29L81.34 3.19Z" id="cG7usysyk"></path><path d="M143.43 57.1C138.62 60.42 132.22 62.09 124.21 62.09C115.53 62.09 108.57 59.62 103.32 54.7C98.11 49.78 95.5 43.2 95.5 34.95C95.5 34.39 95.5 29.92 95.5 29.36C95.5 23.96 96.72 19.22 99.14 15.12C101.59 11.02 105.06 7.88 109.53 5.7C114 3.49 119.18 2.39 125.07 2.39C132.87 2.39 139.13 4.12 143.84 7.58C148.55 11.01 151.29 15.77 152.06 21.86C151.09 21.86 143.3 21.86 142.32 21.86C141.48 17.23 139.65 13.88 136.82 11.81C134.03 9.73 130.12 8.7 125.07 8.7C118.88 8.7 114.02 10.5 110.49 14.12C106.99 17.74 105.24 22.89 105.24 29.56C105.24 30.13 105.24 34.63 105.24 35.19C105.24 41.5 106.91 46.51 110.24 50.23C113.57 53.96 118.22 55.82 124.21 55.82C129.59 55.82 133.71 54.86 136.57 52.95C139.47 51.01 141.38 47.64 142.32 42.85C142.97 42.85 146.22 42.85 152.06 42.85C149.54 50.11 146.66 54.86 143.43 57.1Z" id="f5itXfB9RN"></path><path d="M125.71 22.74C120.46 22.74 116.21 26.99 116.21 32.24C116.21 37.48 120.46 41.74 125.71 41.74C130.96 41.74 135.21 37.48 135.21 32.24C135.21 26.99 130.96 22.74 125.71 22.74Z" id="b5XyGUjKy"></path><path d="M26.59 62.09L26.59 2.39L38.04 2.39L38.04 62.09L26.59 62.09Z" id="a1zsGnkgqC"></path><path d="M61.46 9.83L1.77 9.83L1.77 2.59L61.46 2.59L61.46 9.83Z" id="avdbv486m"></path><path d="M145.36 57.1C140.55 60.42 134.14 62.09 126.14 62.09C117.46 62.09 110.5 59.62 105.25 54.7C100.04 49.78 97.43 43.2 97.43 34.95C97.43 34.39 97.43 29.92 97.43 29.36C97.43 23.96 98.64 19.22 101.06 15.12C103.52 11.02 106.98 7.88 111.46 5.7C115.93 3.49 121.11 2.39 127 2.39C134.8 2.39 141.06 4.12 145.77 7.58C150.47 11.01 153.22 15.77 153.99 21.86C153.02 21.86 145.23 21.86 144.25 21.86C143.41 17.23 141.58 13.88 138.75 11.81C135.96 9.73 132.04 8.7 127 8.7C120.81 8.7 115.95 10.5 112.42 14.12C108.92 17.74 107.17 22.89 107.17 29.56C107.17 30.13 107.17 34.63 107.17 35.19C107.17 41.5 108.83 46.51 112.16 50.23C115.49 53.96 120.15 55.82 126.14 55.82C131.52 55.82 135.64 54.86 138.5 52.95C141.39 51.01 143.31 47.64 144.25 42.85C144.9 42.85 148.15 42.85 153.99 42.85C151.47 50.11 148.59 54.86 145.36 57.1Z" id="cdWIL59dH"></path></defs><g><g><g><use xlink:href="#a30NdSbG9C" opacity="1" fill="#ffffff" fill-opacity="1"></use><g><use xlink:href="#a30NdSbG9C" opacity="1" fill-opacity="0" stroke="#000000" stroke-width="1" stroke-opacity="0"></use></g></g><g><use xlink:href="#cG7usysyk" opacity="1" fill="#ffffff" fill-opacity="1"></use><g><use xlink:href="#cG7usysyk" opacity="1" fill-opacity="0" stroke="#ffffff" stroke-width="1" stroke-opacity="0"></use></g></g><g><use xlink:href="#f5itXfB9RN" opacity="1" fill="#ffffff" fill-opacity="1"></use><g><use xlink:href="#f5itXfB9RN" opacity="1" fill-opacity="0" stroke="#000000" stroke-width="1" stroke-opacity="0"></use></g></g><g><use xlink:href="#b5XyGUjKy" opacity="1" fill="#ffffff" fill-opacity="1"></use><g><use xlink:href="#b5XyGUjKy" opacity="1" fill-opacity="0" stroke="#000000" stroke-width="1" stroke-opacity="0"></use></g></g><g><use xlink:href="#a1zsGnkgqC" opacity="1" fill="#ffffff" fill-opacity="1"></use><g><use xlink:href="#a1zsGnkgqC" opacity="1" fill-opacity="0" stroke="#000000" stroke-width="1" stroke-opacity="0"></use></g></g><g><use xlink:href="#avdbv486m" opacity="1" fill="#ffffff" fill-opacity="1"></use><g><use xlink:href="#avdbv486m" opacity="1" fill-opacity="0" stroke="#000000" stroke-width="1" stroke-opacity="0"></use></g></g><g><use xlink:href="#cdWIL59dH" opacity="1" fill="#ffffff" fill-opacity="1"></use><g><use xlink:href="#cdWIL59dH" opacity="1" fill-opacity="0" stroke="#000000" stroke-width="1" stroke-opacity="0"></use></g></g></g></g></svg>